<mxfile modified="2020-01-27T23:19:58.733Z" host="www.draw.io" agent="Mozilla/5.0 (Macintosh; Intel Mac OS X 10_15_2) AppleWebKit/605.1.15 (KHTML, like Gecko) Version/13.0.4 Safari/605.1.15" etag="XnLG-jkiKAZvHzsEWlIA" version="12.5.8" type="github">
  <diagram id="Ht1M8jgEwFfnCIfOTk4-" name="Page-1">
    <mxGraphModel dx="1419" dy="758" grid="0" gridSize="10" guides="1" tooltips="1" connect="1" arrows="1" fold="1" page="1" pageScale="1" pageWidth="1169" pageHeight="827" math="0" shadow="0">
      <root>
        <mxCell id="0"/>
        <mxCell id="1" parent="0"/>
        <mxCell id="L-7kEPcAw9VgbycKQxOz-1" value="" style="rounded=1;whiteSpace=wrap;html=1;fillColor=#f5f5f5;strokeColor=#666666;fontColor=#333333;" parent="1" vertex="1">
          <mxGeometry x="417" y="177" width="273" height="620" as="geometry"/>
        </mxCell>
        <mxCell id="L-7kEPcAw9VgbycKQxOz-41" value="" style="rounded=1;whiteSpace=wrap;html=1;strokeColor=#D79B00;strokeWidth=1;fillColor=#FFE6CC;" parent="1" vertex="1">
          <mxGeometry x="488" y="221" width="141" height="64" as="geometry"/>
        </mxCell>
        <mxCell id="L-7kEPcAw9VgbycKQxOz-2" value="" style="rounded=1;whiteSpace=wrap;html=1;fillColor=#FFE6CC;strokeColor=#D79B00;" parent="1" vertex="1">
          <mxGeometry x="880" y="304" width="145" height="440" as="geometry"/>
        </mxCell>
        <mxCell id="L-7kEPcAw9VgbycKQxOz-3" value="" style="shape=image;html=1;verticalAlign=top;verticalLabelPosition=bottom;labelBackgroundColor=#ffffff;imageAspect=0;aspect=fixed;image=https://cdn2.iconfinder.com/data/icons/amazon-aws-stencils/100/Compute__Networking_copy_Amazon_EC2_AMI-128.png" parent="1" vertex="1">
          <mxGeometry x="844" y="254" width="100" height="100" as="geometry"/>
        </mxCell>
        <mxCell id="L-7kEPcAw9VgbycKQxOz-8" value="Inference code image" style="verticalLabelPosition=bottom;html=1;verticalAlign=top;align=center;strokeColor=none;fillColor=#00BEF2;shape=mxgraph.azure.code_file;pointerEvents=1;" parent="1" vertex="1">
          <mxGeometry x="923" y="362" width="47.5" height="50" as="geometry"/>
        </mxCell>
        <mxCell id="L-7kEPcAw9VgbycKQxOz-9" value="Training code image" style="verticalLabelPosition=bottom;html=1;verticalAlign=top;align=center;strokeColor=none;fillColor=#00BEF2;shape=mxgraph.azure.code_file;pointerEvents=1;" parent="1" vertex="1">
          <mxGeometry x="928.75" y="601" width="47.5" height="50" as="geometry"/>
        </mxCell>
        <mxCell id="L-7kEPcAw9VgbycKQxOz-10" value="" style="rounded=1;whiteSpace=wrap;html=1;strokeColor=#FF8000;strokeWidth=3;" parent="1" vertex="1">
          <mxGeometry x="459.5" y="341" width="199" height="154" as="geometry"/>
        </mxCell>
        <mxCell id="L-7kEPcAw9VgbycKQxOz-11" value="Inference code" style="verticalLabelPosition=bottom;html=1;verticalAlign=top;align=center;strokeColor=none;fillColor=#00BEF2;shape=mxgraph.azure.code_file;pointerEvents=1;" parent="1" vertex="1">
          <mxGeometry x="578.5" y="366" width="47.5" height="50" as="geometry"/>
        </mxCell>
        <mxCell id="L-7kEPcAw9VgbycKQxOz-12" value="Helper code" style="verticalLabelPosition=bottom;html=1;verticalAlign=top;align=center;strokeColor=none;fillColor=#00BEF2;shape=mxgraph.azure.code_file;pointerEvents=1;" parent="1" vertex="1">
          <mxGeometry x="484.5" y="366" width="47.5" height="50" as="geometry"/>
        </mxCell>
        <mxCell id="L-7kEPcAw9VgbycKQxOz-14" value="&lt;b&gt;&lt;font style=&quot;font-size: 16px&quot;&gt;Deployment/Hosting&lt;/font&gt;&lt;/b&gt;" style="text;html=1;strokeColor=none;fillColor=none;align=center;verticalAlign=middle;whiteSpace=wrap;rounded=0;" parent="1" vertex="1">
          <mxGeometry x="533.5" y="442" width="40" height="30" as="geometry"/>
        </mxCell>
        <mxCell id="L-7kEPcAw9VgbycKQxOz-15" value="On ML computeinstances" style="text;html=1;strokeColor=none;fillColor=none;align=center;verticalAlign=middle;whiteSpace=wrap;rounded=0;" parent="1" vertex="1">
          <mxGeometry x="482.5" y="466" width="157" height="29" as="geometry"/>
        </mxCell>
        <mxCell id="L-7kEPcAw9VgbycKQxOz-21" value="" style="rounded=1;whiteSpace=wrap;html=1;strokeColor=#FF8000;strokeWidth=3;" parent="1" vertex="1">
          <mxGeometry x="461.5" y="573" width="199" height="154" as="geometry"/>
        </mxCell>
        <mxCell id="L-7kEPcAw9VgbycKQxOz-22" value="Training code" style="verticalLabelPosition=bottom;html=1;verticalAlign=top;align=center;strokeColor=none;fillColor=#00BEF2;shape=mxgraph.azure.code_file;pointerEvents=1;" parent="1" vertex="1">
          <mxGeometry x="580.5" y="598" width="47.5" height="50" as="geometry"/>
        </mxCell>
        <mxCell id="L-7kEPcAw9VgbycKQxOz-23" value="Helper code" style="verticalLabelPosition=bottom;html=1;verticalAlign=top;align=center;strokeColor=none;fillColor=#00BEF2;shape=mxgraph.azure.code_file;pointerEvents=1;" parent="1" vertex="1">
          <mxGeometry x="484.5" y="598" width="47.5" height="50" as="geometry"/>
        </mxCell>
        <mxCell id="L-7kEPcAw9VgbycKQxOz-24" value="&lt;b&gt;&lt;font style=&quot;font-size: 16px&quot;&gt;ModelTraining&lt;/font&gt;&lt;/b&gt;" style="text;html=1;strokeColor=none;fillColor=none;align=center;verticalAlign=middle;whiteSpace=wrap;rounded=0;" parent="1" vertex="1">
          <mxGeometry x="535.5" y="674" width="40" height="30" as="geometry"/>
        </mxCell>
        <mxCell id="L-7kEPcAw9VgbycKQxOz-25" value="On ML computeinstances" style="text;html=1;strokeColor=none;fillColor=none;align=center;verticalAlign=middle;whiteSpace=wrap;rounded=0;" parent="1" vertex="1">
          <mxGeometry x="484.5" y="698" width="157" height="29" as="geometry"/>
        </mxCell>
        <mxCell id="L-7kEPcAw9VgbycKQxOz-31" value="" style="shape=image;html=1;verticalAlign=top;verticalLabelPosition=bottom;labelBackgroundColor=#ffffff;imageAspect=0;aspect=fixed;image=https://cdn2.iconfinder.com/data/icons/amazon-aws-stencils/100/Compute__Networking_copy_Amazon_EC2_Instances-128.png" parent="1" vertex="1">
          <mxGeometry x="419.5" y="298" width="82" height="82" as="geometry"/>
        </mxCell>
        <mxCell id="L-7kEPcAw9VgbycKQxOz-32" value="" style="shape=image;html=1;verticalAlign=top;verticalLabelPosition=bottom;labelBackgroundColor=#ffffff;imageAspect=0;aspect=fixed;image=https://cdn2.iconfinder.com/data/icons/amazon-aws-stencils/100/Compute__Networking_copy_Amazon_EC2_Instances-128.png" parent="1" vertex="1">
          <mxGeometry x="419.5" y="530" width="82" height="82" as="geometry"/>
        </mxCell>
        <mxCell id="L-7kEPcAw9VgbycKQxOz-33" value="&lt;b&gt;&lt;font style=&quot;font-size: 16px&quot;&gt;Amazon SageMaker&lt;/font&gt;&lt;/b&gt;" style="text;html=1;strokeColor=none;fillColor=none;align=center;verticalAlign=middle;whiteSpace=wrap;rounded=0;" parent="1" vertex="1">
          <mxGeometry x="476.5" y="767" width="176" height="30" as="geometry"/>
        </mxCell>
        <mxCell id="L-7kEPcAw9VgbycKQxOz-34" value="&lt;b&gt;&lt;font style=&quot;font-size: 16px&quot;&gt;EC2 Container Registry&lt;/font&gt;&lt;/b&gt;" style="text;html=1;strokeColor=none;fillColor=none;align=center;verticalAlign=middle;whiteSpace=wrap;rounded=0;" parent="1" vertex="1">
          <mxGeometry x="868" y="693" width="176" height="27" as="geometry"/>
        </mxCell>
        <mxCell id="L-7kEPcAw9VgbycKQxOz-35" value="" style="rounded=1;whiteSpace=wrap;html=1;strokeColor=#E6D0DE;strokeWidth=1;fillColor=#E6D0DE;" parent="1" vertex="1">
          <mxGeometry x="229" y="265" width="120" height="106" as="geometry"/>
        </mxCell>
        <mxCell id="L-7kEPcAw9VgbycKQxOz-36" value="" style="rounded=1;whiteSpace=wrap;html=1;strokeColor=#E6D0DE;strokeWidth=1;fillColor=#E6D0DE;" parent="1" vertex="1">
          <mxGeometry x="218" y="625" width="120" height="106" as="geometry"/>
        </mxCell>
        <mxCell id="L-7kEPcAw9VgbycKQxOz-37" value="" style="shape=image;html=1;verticalAlign=top;verticalLabelPosition=bottom;labelBackgroundColor=#ffffff;imageAspect=0;aspect=fixed;image=https://cdn2.iconfinder.com/data/icons/amazon-aws-stencils/100/Storage__Content_Delivery_Amazon_S3_Bucket_with_Objects-128.png;strokeColor=#E6D0DE;strokeWidth=1;fillColor=#E6D0DE;" parent="1" vertex="1">
          <mxGeometry x="246" y="261" width="86" height="86" as="geometry"/>
        </mxCell>
        <mxCell id="L-7kEPcAw9VgbycKQxOz-38" value="" style="shape=image;html=1;verticalAlign=top;verticalLabelPosition=bottom;labelBackgroundColor=#ffffff;imageAspect=0;aspect=fixed;image=https://cdn2.iconfinder.com/data/icons/amazon-aws-stencils/100/Storage__Content_Delivery_Amazon_S3_Bucket_with_Objects-128.png;strokeColor=#E6D0DE;strokeWidth=1;fillColor=#E6D0DE;" parent="1" vertex="1">
          <mxGeometry x="235" y="625" width="86" height="86" as="geometry"/>
        </mxCell>
        <mxCell id="L-7kEPcAw9VgbycKQxOz-39" value="Model Artifacts" style="text;html=1;strokeColor=none;fillColor=none;align=center;verticalAlign=middle;whiteSpace=wrap;rounded=0;" parent="1" vertex="1">
          <mxGeometry x="236" y="337" width="106" height="24" as="geometry"/>
        </mxCell>
        <mxCell id="L-7kEPcAw9VgbycKQxOz-40" value="Training Data" style="text;html=1;strokeColor=none;fillColor=none;align=center;verticalAlign=middle;whiteSpace=wrap;rounded=0;" parent="1" vertex="1">
          <mxGeometry x="225" y="701" width="106" height="24" as="geometry"/>
        </mxCell>
        <mxCell id="L-7kEPcAw9VgbycKQxOz-42" value="&lt;b&gt;Endpoint&lt;/b&gt;" style="text;html=1;strokeColor=none;fillColor=none;align=center;verticalAlign=middle;whiteSpace=wrap;rounded=0;" parent="1" vertex="1">
          <mxGeometry x="532" y="246" width="106" height="24" as="geometry"/>
        </mxCell>
        <mxCell id="L-7kEPcAw9VgbycKQxOz-44" value="Client &lt;br&gt;Application" style="aspect=fixed;html=1;points=[];align=center;image;fontSize=12;image=img/lib/mscae/CustomDomain.svg;strokeColor=#D79B00;strokeWidth=1;fillColor=#FFE6CC;horizontal=1;verticalAlign=middle;labelPosition=right;verticalLabelPosition=middle;" parent="1" vertex="1">
          <mxGeometry x="510" y="51" width="77.5" height="65.1" as="geometry"/>
        </mxCell>
        <mxCell id="L-7kEPcAw9VgbycKQxOz-47" value="" style="shape=flexArrow;endArrow=classic;html=1;exitX=0;exitY=0.5;exitDx=0;exitDy=0;exitPerimeter=0;entryX=1;entryY=0.5;entryDx=0;entryDy=0;entryPerimeter=0;fillColor=#FF9933;strokeColor=#FF9933;" parent="1" source="L-7kEPcAw9VgbycKQxOz-8" edge="1" target="L-7kEPcAw9VgbycKQxOz-11">
          <mxGeometry width="50" height="50" relative="1" as="geometry">
            <mxPoint x="545" y="412" as="sourcePoint"/>
            <mxPoint x="589" y="369" as="targetPoint"/>
          </mxGeometry>
        </mxCell>
        <mxCell id="L-7kEPcAw9VgbycKQxOz-48" value="" style="shape=flexArrow;endArrow=classic;html=1;exitX=0;exitY=0.5;exitDx=0;exitDy=0;exitPerimeter=0;entryX=1;entryY=0.5;entryDx=0;entryDy=0;entryPerimeter=0;strokeColor=#FF9933;fillColor=#FF9933;" parent="1" source="L-7kEPcAw9VgbycKQxOz-9" target="L-7kEPcAw9VgbycKQxOz-22" edge="1">
          <mxGeometry width="50" height="50" relative="1" as="geometry">
            <mxPoint x="665" y="632" as="sourcePoint"/>
            <mxPoint x="570" y="606" as="targetPoint"/>
          </mxGeometry>
        </mxCell>
        <mxCell id="blO8C7QBAwljQtFiSTqT-1" value="" style="shape=flexArrow;endArrow=classic;html=1;exitX=0.5;exitY=0;exitDx=0;exitDy=0;entryX=0.5;entryY=1;entryDx=0;entryDy=0;strokeColor=#FF9933;fillColor=#FF9933;" edge="1" parent="1" source="L-7kEPcAw9VgbycKQxOz-10" target="L-7kEPcAw9VgbycKQxOz-41">
          <mxGeometry width="50" height="50" relative="1" as="geometry">
            <mxPoint x="326" y="419" as="sourcePoint"/>
            <mxPoint x="376" y="369" as="targetPoint"/>
          </mxGeometry>
        </mxCell>
        <mxCell id="blO8C7QBAwljQtFiSTqT-2" value="" style="shape=image;verticalLabelPosition=bottom;labelBackgroundColor=#ffffff;verticalAlign=top;aspect=fixed;imageAspect=0;image=data:image/png,iVBORw0KGgoAAAANSUhEUgAAAHgAAAB7CAYAAAC/8ER8AAAAAXNSR0IArs4c6QAAAERlWElmTU0AKgAAAAgAAYdpAAQAAAABAAAAGgAAAAAAA6ABAAMAAAABAAEAAKACAAQAAAABAAAAeKADAAQAAAABAAAAewAAAABPQi8+AABAAElEQVR4Ae296a+ex5Xgd971Ltz3RZRIidRuyZYXWe3d7m73dA9mphEkCCbI3xIMkE/zNci3fBk0MBgkQdIz6JlOenr1Klm2JFuyJIqixH3fLu/+rk9+v1Pve3lJcbmUaFsOVOR7n7WqTp2tTp06VU/EZ+kzDHyGgc8w8BkGPsPAZxj4XWCg9ruo9EHW2TnzejXoLsSwsxTRW4oax8rz5ZkYLM3HoNeLqIZUWfHPo02uRaPeiGa7Hc2JiYjJzVFNbonh5LoI7tXbU9xfF63dn/+9x8/vXQO6J1+purNXozd7Oarrl2IwfzWGS9f5zUWtvxz1QS9qg240+4sQfDkG/UHUIW2tBoGT0DXOaXatzv9G1BqNGDSmY9jcGFVrMqr2RNSn1kdj/aaITdujsWlntDbtiPqGbTGx8/eP4J96AnfP/7oazJyP/sy5GMycjuHMxejOXI3+4mzUe4vRrLrRGHajPuwnIetJSIW0zg9iVpxD4EjphdBe8qbPhtz2SVVxPeTn03otqhpErzejW29FJbE3bY3apm3R3sIPgte3HIyp/V/71OPOln5qgVz64KdV99Lx6J1/PwZXz0bMX4764jWkczkaSGKjxg+i1SVcSiYHiFpJZokXTVoH0SqpOKShSjF/vSb5js2X5HVu1VOLI+WUq7QPeexvwPM+DDCgtnp7MhrTG2Ow5ZFo7ToQ7e17o7V1X0w8/Okl9qeKwJ3Tr1bVhQ9jcOFodC5C3JkLUVueB/moXYhUhzj1MWG9TvIM+es/iIDkje9KTGVSMU0m8DyT75IkfhJYHhANqGwONUla9bku5RYmQaJ5niVRRx/pHkDs4fTmaGx9JNq7H+d3KNY9+d1PFT5pBO35FKTOsVeq5XPvRf/MW9GAuPX589FA/TYSQpBZ89dIBEMOCI2UVcqW8ge5UholQpIH0tSQX2Qu30mFTEkQVukdtVhimbVIu6XUk4TKvuWr6n1eZB/GkXn4ebMFw1U87wBXpw6hJzdFY8tD0dyxP6b2HIyJ3QejsfcLnwrc/k6B6H74j1X/zBvROYXEXjgZjaWrMTnsRLvqFeLyV9XY5zeEiGOCqkJT9UqBRLky6jscR2q6SRl1JNEGJhOM3izvl5Ju9NOUjYouyFBXp74e3RjVarlIulW36e99p9eAoeqqb8kOA9anItbviNq+p6J14Bmkej+/l36nOP6dVN459Yuqe/Lt6J/4ZfQvH4/Bwmw06FvbtR5GE8aSqlikgVRV4xBJUYuO1fSY0KLVBkhmc/iTEQpllD0l3avCCDzIZFklZ3lX4kCd8VMyFJKVkn1n/D5qHNjUJfbVfQof8rPmpvUMm9GLiVhqbYz+5j3RfujRmH7kqZjc+3g0tz9XChrV8ts6/NYrXfjVf66Wjr4cg1NvYTRhCYPtlD+QmhKX/V9SBSQmiVakMiqGNWAmVSjq13yprpOAEnHUHA59VSpv3GjgDSIX4o5RPJbC8m4y16jsLJbXkiGAZbBSGCzDebmWuMNoDzDrFPxoRQ+1vVibiF6T8fSmzTH58OMxeeirMfHEH62UMK79N338rVXYOfYqhH0lOh/+PGrXT0dzwBAHDDVHkpOmT4qb7gglxN8IuWChgrgMVCGYalLSjX7ZH5eecoWaZOwzxi3q+vYoXN3wAXVJrIbSiVEmwTxX8mULrek+w6cBQm5NtQqNkhDwkLxa9art1pCn5K8wwnoMsXowWY/2DVsMtfY8HtNPvBTTX/3Xq6u+PXAP8O5vpbLF1/6y6h5BajWiOleizphEVdpEE7bgfI2kcf+ZpAKqgtpEbyKxBtGUdo8l8Yx89ospkdwuZB5JIsodkpRnZuDdlTQiXt7mj3XJUPbrKmrV8PhtIUhNYl3ctP7GsKj0fsJt0RIZu8HuxTp5b0D34tUwJimhlV1NbfPuaB/6Skwc+lq0H/vt9M3jdgDEg0/9M29WnSOvRPe9n0bt6nEIuiCG0qegVLTg/CZcL1pLX1vksgxhfFUp9QkIF+nSYAymCBeBHvO+BEjy8IZqn6EVebNvzXfNWJpb7ssO3pE4vm93oGqHOEqreThaYSFqYTAluzm0j4aAGFh9jS+ucKNBaH+2BwbmbxmXY3jhRJH4Q9ozmN4ajX2fi4mnvhlTz/+rApD5f0PpN1ZB54MfVp23/yn6H77BsOdKoi+dCyAgeRsPlMgoyf5SBDsMgUggXMC8cqhjvygSlcdSBhfeWIGe+zIAtyRxhZpU5aoVkoSrCC+XyDhBuRpLSeAkgMwCgRuwBoRVOq1LpmrweoufR2GpYQzKWDpTlNSsx7ZA4LEe4QSYZFjVuQyk2i9MZx892MnY+envxOTjSPOOp1ZaYr4HmXD3PPi0dPjvq7nX/t+IE69FuzNDBfRF9YkkIGdJtCaIAiU5zJBWIiFFsZyBRPCVD0D0mJiJRBGvXBdUyi6Zlwx1+t06BNLHPLAPpi8c+5trnFvFcDDAPw1z6dqE0DWksTaAMNyv+FlFHcK0LZWKFeKiQVS9SCY8M7CLkZXIX5R6YUBeoAqZwh9w8Ovn+7av/OyvJwbzsXzhnVjuLEa1NBvdc69X7T1fpKYHnx44gbu/+r+q66/9dXTOvR+T3cXkXFoKiZUmG2k7ChI8ajyBj7xbnoIyXh0ihfznmQ9VoFxwKlt0yZMM014XAwyY4eSGaExtihZ+47a+46l1UZ9ENTYwyphMqHmE4KYBxBz0ukxEdKLGb9jtxGD5KjNP+LcXFqK+xHCtw2RFZzmf12DIqKNeIWoxxiS0bQAcQKoDpLAVJ0qxAiRyjg5o2BAmqUZWubl02ij7bTXI9ZPRefvvowKOLkPH9sNfLgVn6Q/mzwMrsHflcLV87M2ofv130Tt3NBvWYOjTGC6jpFRNSpzqigbScDk5fb08EEE2uhx5kXsDqav6y7sQVqu0Nc1Mz8aordsS1fpt0diAU2HDzqht3BFNrpuTG5kC5J2JKQzuNthH9ijDcrJQcQbCk1mYdYr+iMDd6zFA0/SXmIFaxDU6NxMVM1bD2SsRC5djgA980J1NPzjzksCO64U20LNCYMkpI8oEEt8LpRfGYlxsv6zqlsVTnZPLLqJpyzh2aq3ortsbk4+9EFPPfBsj7FuW8MDSA5PgxSM/j7l3Xol1F4/GdH+OxoDGRLAcjDDBsU3sSiUWJcVzVTZtT+5GNYIU/vBT7WnkoIYhajCF15xeHzUcB/Vtj0dr+z6mb7dHHSI3IGhtYgPvTENM5nXTlUi9FFOUpvI+YhvLtnjgEoP1JgzQmKIMUb9LSHhO3fSTUDqGvfmoIOzw+oXoXD0fwSxWfeZSBISPRaYql+dSC8iodhjIN8WruqlPRwnFWZduzQaGpEMmHTY+sH5/tlMHaWMB7XH4x7GwvBCzR1+pNh56cBa29XzitPyTf1ct/fofYnj1JP3LEgizoTYAjKpvOdbt67zOv3qK4WEQoMHVhMiMIrlWkaNCud+d3hKx/UBM7Hosprbvx6m/DyLvZXIeYlumyNLDRTlFQks91oX8c680LVWnajIh4rb/YB5r9irH20qc/5BM31QF531gyYkOJD1Afsxej/7sTHSYh+5fPhJx9u1ozpyNZo9nlO/YW8bUzqjTpiFtSqeMT2mbZp2pWA3CaS61FJDIBBProzrwxVj3wp/E1OMPxinyiSV47pX/o5r/5f8TE5ffp19ZooE2sjREBCa+OY65d3SDOyAPqdJ7ZRMrVFVao+i4Pm1v4LifpKETDz0X9endTMjTp1KYRlFO3EOEJBIITYKQR5KWn/VCZH6+P9SIwqhSspM51Az5sz/UBpD1eAgsOYSCaQZ6pHCsNGpT0cJFVVu3ie5gXzT3wRhEibRmP4zeO+uj/+bf47jR1tAmF52qYNtVuoJCWG7nE03Dkqgtk/Ultii21bse3RM/iyXw0j32k6r96NdtzidKn4jAi2/8VTWPtTy8dgpEQBSQkn3QHUEaN6u8IPTKkbgtszcOiXryP5Ps21N6Y90uGAaVDpuLsgbM04AgSgjWSRJUCzi6yxhMRHBgsFQQtIZUGeEx5LqPwdTzOYU0Wq1oEZLT4FefmIwa034VKr7WmogGDuVaCwI1JihXhmoXCWPCWA+XemlIAxvNZrRwWsTux6J75FUCEZjWpGtR+2hfpFQCszAW1lkjnWByrEeI/F4sTv0gemdfr1p7P5l1/bEJ3Hnvb6uFn//naF56D+kgFoo2SIAiJlLt3klEMPkGwZQeZUACgxT6x9rUZlx8/BgzjrkmFS3PGxCuWiZMh76ru0A/uYBRNIclTPjOYHkWui8R7QFMqNaqj/GD1azlXKEGBxBnCDFrGmFNjsRkVZNEbDC325yk3knu0T3UYazG+p100xuTKRxmDbUflHaIWKvBFFM7mRcmtIdnzUrjy34Yu9txbrJ7cdIkXu6JDt+izwYVzSXiyXDrLgFL7+KvqtYnCBX6WATuH3u5Wvz5X0b9zK8ACOkAsNKLaSAppWMVffdW6dhwrNrHErUfNvzGXqkmUtdvp6VYw0orZRqWU81fzOiOxWvnMH7ORWAAdZGeAQSudeZTahsDEM27So7/1Syj3hai3DC6BilphWBpoDWY12UMPWi0YwBzxca9hOnsiYltu6O1BSud+d7axoeiAqa0HZDQxvS2qMEEwyZGHsMtrWut9mwFcKuqE4jEyb2kmOcwYHGGMKu2eD6W3v0BevtjkWgF8R8r9+K7P8KJ8ctoM3TogxCNnVoi1SGBfdFak+oMZgApLZAjgjrk72/YHRMgtI6U6ZAQNfVqMZaZO55768fRu3yGueMZZnAWo4WUOqZUxUvU8XBLlZJDpLxHFSJ7RHDhq+dzlQMMRDmNPgzCufZDZxHNcO0s50jt1FQsE3DXfPRLse65P8bQ258wy8gNpL62bV90TzIW71zN+rWircsRg7Dcj0aTuckMdOSnTe3ZM9F5B+v6tf+9Wvel//5eHHJbpN83gWde/vdV9/W/iinCUiWmSigljOECLRKHa06FW0VVC4SgByBwt4l63PlkNLfup3gJzH0MIr1N3UsnY/ncB9FEDU9Gh4mKIjVKaAm7KchRUoUrAUq0cx9Yx9BhAlHnCF8QY4hVXvpN7e8yBmhVc7Ee7VSf68TSbCuWa92Y2P9k9r0DDK809FD1EzsPRGfj7ugtXmRGSWeIhpvaiBItG6YpcHC4V+LVoa40oKtT1qQ4vXo6lhh+Lr//cjX5+B+MgL5XQTee3xeBF97+m2r+1f8EZ52ly9QOBvH8k1BQAiSVabQbxd/9TPWuUdKvYexI3DraYMvDMb3/8zgxdmd5OcrSUl4gLBbVPIml2aK/a1FnGlqiE+KV8aftL5Jc/grdOK1mvVTgPPApcgYR8gfhteR9qnXfwqnRYoKkhvHTm70Qfepv7UbaJycLi1Dk9K5HY3nvkwyd6DKW8blDVPGhsVhgSDNyDMRdj6CCttilwPQyBn1+m1FA98yRWD788l3z3unhmmtfxqJbfO/HxEy9R6OXIIr9F8Hj2W/Y98h9xbF+p8puvS9RG9nvVrGExbo8TZ938CvR3vsEhtBUDDC8cuiBmu5ePhm1K8diunctpoao5vQoYT0ncYpTpC8hYJJerVi/gJQp5Zr3cjjkkbs+80w1qqQ1sZJbILONRe68bkOn85BRAU6ZWkV5i120B33/3LUyps/C0V7rtsX0oy9Ef8eTcb2xhXZgtEGiZJzCBgnD2v4UqIzyNH92EXZfeNo6H7wa8y//h3yytrLKW2uW4AVmhfqn34l1PaIwjL6w74RAOYZNNIkuEbb2ZPyxHp7F+nQsY8lOHfh8tA69RJD5jtJ1UViSYOFSLBMBUiFFE0hGOvOTYPb3hUxjyc3xp30y6m0My0egAk2FzGN8KbX28+VaKVZl91HFQ7oHlabDpMHZo0R8HokmrlE9aJXqGBUzCUNOHLrMSA2D8wrvEH40hNFyqpu8pa5746XArgSXNgmHEDUaaITFc2EkzPIH/1RNHvzOuGn3LHRNBF44+oNq9pX/SCUYErCXgEzQ/+WsDgTSKSCCddmVdKP+Ec7y+eghB57zv0uQmmEtg62PxiQOjXWP/0E0dj+dwxfHlJyg+QeMBw9H/9SbEUwC9HAv6vVJGcECH2CBjw0bGa9ML+qREjlFQSU0Y1quAHGDNZwDppiRoadWMDTWoQ7LWIBB428iIN61w1EdY5kLYbIxwfAIJksNMLUtNh76UrSdkDhGl3X5KIH5uGv7agJhocxb6ifrR5J4dUpSwhpBYryXM1gKTr22HN0LhyHwqx/Jd7cb9yRwdfndav4X/zGaF99HjeGyk6sAxIYBClVrvNhQWuB959c41ZGulusxTuyxLKTIE5IFxzda67BOsUDXTUdr45aYfuhp+rano84wxGUkxdRxWnEx+lfOxNKRN3CDXgDVFk03YKOti35BvBV+BwkJV8Gk+BMxqZZ5Y/wWJ6P3gV8484/vyZ4yRclj27Qr0tXJvXQ/MrYenHwzlh/6dUwwcV9nNstJEGFqbtobG5/5elS7dkZ16UQszVyL5UUcLwhFLM4weYVUMya3vCYjjsnONUYAuDgT5kJtcVbORjhFE43hy+nN7nwsHH8n5t/6L9X65/55edUG3SXdk8D9U7+O5vGfxyTjMn24okRLU5/rCBrQorSJr2LUWDNw4zBYH839X4rh1mchPFXVWWYigdss9NpAHPH66Zhap8Mfh0ZjXfbrNsn52HR4zJ+J7uEfRu/Em4T60O/KJkhTISHlg4Bb03jYpZIdjTggnuQSXk4ys5B6Un5OGOS7tCulngzOV0tUU8EkMKGSu/PXY9EIFZhzet8zOEl2FCOP/r8xtTsaDzERsufFmGRN1BCNUy0wUZGTEzBHn/Lo45tLrNL48KdRXXifiQ3uJRiO0YVRFiMBg/h2OnI88zZs1mPp+pVYOvEWM3avVK09956UuCeBF08fxdd6NaXDlq7gaNRsYVlJIlJkpbHTjDpOgOnHX4wNB75OR4KFDIHtt9FvOAzWU1gZutBkiFv6GwnbUFPMnGFo8Gp03vtZNGePp5+7nu8UJlqp87YnRabHj7yS4EnpvAkKE4seSr1jMt44rj4rJfmu1nX//K9j8V0csy3U8R5GEpPbKUdJlhVEKcYn/usNeMpiA0O92h7uWb8/mHLuXHTmj8XS1ePc0uIWHsYgINe5Y6U8Y8Sy2sKMhgqVwL6l6ECT3p5H8um9/tyVwHNv/U219PL/GRNGQCB5Tl7ndFsCMsLQ6hq4r3TryHdSvkYfO4F01qeQWIdAKkHHtXCnU4EibKTcOUN2mayo64JkvNs98lp0jr4WtZkToA5nfs6pWkaRp9XV3u48kS1DirysCeTelLxfOpqbbt/jwmmI9UsXiQ59LebRNJMdSPvQ55jSRHIb2AxZn3UVcsu8TqQkk2EjiCF9332I3wU+l+I4bteuKE3T3UnXgLbwxkieU5KbSPu6RjeWGK71j72N0ffL6l4rKO5K4N7pXxN1cBbk29eqMkatvw1tx3gpsiInAjy/DCOFO9E0XEh8VHSeA3pyNIqJ5Z717gz97HHGfO/G8ol3Af4DoitmipqEOYaEqhY1Oq7p7scyjrRO/suYtEF0laQBU66E13TjWXnjTn9tz5Rqk8CA5Q9/HfPzDPDOHYupvSxX2ca8MrNOzk9XuD4xtamnzJKJOgnniN2h15DIzDpCYOBADi4TVxLZnzDdgBWkwQjcwWCbdFjJXPXw1OHoYtXfK92RwHPv/m21jPS2cSwUAlPvnSR3VEsZ5Du2lYN1wDufisvOcWUZ3CWiiY+JGgZDjYXbOjC61/ExXzkVQ8J8+ueJBiGKoo7nKNspSpi2k2NKpOS44XdvWhJuRFw1hwQcmVB5Rms4lp8lrZXAljLEMUPrYqIL7Gd+Hb1LR6M6xlrinXsjdjzM3DW/TfuCiWxozAK1DEiASPyTWFiSEMmwYX9gSuJyfyytMkPimnuyg86PvCcO0YATXHQYOs6fJK7r/DvV5O5nfHzbdEcC9+CQGutxWV41yggAINmfld8uiaRJxqkprjgb5PZsEBPhquLS1/TwCJ2KxeNvQNQPozZPOAwW55AwGVcS6vgw1AfGzgZXDJM0eGSeRMDtq74dOLzPy5YDv2V5/EmiJvwWxDXnSdy18Q1ZLAFDT3Wr9KFK3UWge2mB9pyD0O9FY+N2rOpdGJmbor7vKzF94AsI9YYVvIkWA/wcKKeWs264WUgAELIKkcTF6ONW334ZOFXnxcZBaGhU5+KxmLxy8rZtH9+8LYF7x35eLf7o39MfMg1HNUmkUY47ETcfC6g/kuhzCrAYH4AsUjV6IVTv2gX8qz+N+tk3MZ6W6WN5hvouUpfoRvILT5f4JzPCNyBTRbuWZClUldBrP1i2vZsMKnTO65r8m/TOq3v/kcmGaQ9QA4xbjCENJCQR47BaWCaO61LUziEgFNdH+wz3PpZWt8ZXJqg6hEH0OzuUTDghsPKtR61G23PEMhpylnbbcvAwZkhV+TyRJSy3vVu6LYG7BM3Vrp2mIoLSqETrlXbdM4lE50J1GmAbpmFQwaUiuxgfFDEipJMHE/x4O1XQwMbKpdTjYN9+Wi4toaqyWSH8PYEYv0BeUVYk1hWKACXGx0ms8k72zWto2zibzG5MmUmNVPzhevRGiTJFVraZY7fOhEWjSHyBiCdoAQKTOBLCK6G4Th+0w0OYoEBdyheXlqbzw5SakLw2pUlf3Dv/QXRO/qSaeOT20R+3JXDvogYOEYUUqgNAXKwFvaoR/cCu4UkDisjFCrddXcNAicGocHK8RiCd4aw6CMryj+xpEln6tlXJSrC19qjfnw0sRLeZ905pWIG49AqBOOsdKRAVHzYBFn0yEcM2CbxmMQbFjhDIUzx3ElQijZpIofkvmYc6EG2dO1bhm+M01Gp2yDRS9eLXdyR0Ui+hLQyv4KT65pFnuYSHt/WuLV05ET1mnO6UVhhv/EL38A+quHoKaNitBhWUM0TWvKYEKET916lY11pFyGzlRH0CW5AgIutMYrdomDpbh4kN0LnRRF8ZXensUBcGWCb6wn0ydBkycC4YXAMc4igbBpJTJYPg5uatTNxvg+1hQNrjhH/Cku/awLU10rckgoGBHgtZPEoipdvhn8M5fkN28TF0B0ta5k4fuu/JvLgxm2g3VyU6weFUY3FogK1cuwVzpB7EaAUDuTCOynnEOX0/qnwCPeC2Fr1L0OsO6SMSPGBfjNosU1/ZseOsAEnObWZTksuLLJe/4EjxXknOyHSRGpwBgNVFBRvfrE9I1aw6NNUgXJNQiwpmcNrRhvsoBxFGJkKdVE3Wx7N0QVJPiXRcXd9KxTedkIu6LNdejy6AttT3PhKTOx+L6sy5WDyFB2nxCgjCmgfSMmQCPjKY1yZ5VsoopLMCCZguTUWfJKJ9V7KWlQwS0X7Z+m0v+NP1SkivbZTpbFINDmvg6XKNU65iVMNYZ3ZT4mtUpw3gv3hTci1YvHvbuzKvbs/+5VMson+1mnj4RcG/KX2UwNc+xAa/TvbSh7pS3uFONgwpWt0XqqIS+YKUxKdaKnX1ncbVEC/+0BBJG5DPkWYMpYoJgz4zSHYBafoA1gCCC12BvZzbGFPS2TryotzLB3f8Y+MJIgCWNnaEBK5cef/495iK7EZn4kcRR3+CQXQS4qJFYKos2hqkGJCMyJHtU8eI8hItKunscsgjMcGIDC0jSUSRXimBPDFAsCIQvzJwgftlYRr5eoQK6zwaaTAZQXk1T3lPTHg9brvXXIEIwctJCHJ30QwKYHXtTFSE794u3UTg7omfpPVMGH8CqhGn9Quf0ThVpwROPqR4ziCcXG8SAf5l6J5IUaVW6sIuyEAFVbj1SgJ59NNV00lzVJgrDB5wEpYuDFNUqGpfYhAlOcFeV5sJmG9CIgagPfwE/cULaB2Wq8jEthNk22bjuHNBOmUl8iVWttF2g2zanktX5T7+J1vwR6aUvBKr3kQ15woL0TxiUI/Eb6UP2vPMCzGzHAlMGRaWdZVyb6AnKyCX98kIYxrxUi0Qr3398o3XVp3dROBlfM7LOB4msoL8Q8Wl8lypkEUnX1GDBoycbpP4cZ4N5r7TdlQPIuhnCYYjZpWAdedPi3vSBWJNwl2M5WrQF1nGg0wibaDlSqEDFPGgIkCOSXu5H69DNHfhdXqhFssbt0bnGPPM596N1jIIAmE5x5vAYHxJpmRsmVvGVkk7/s0X8lrIvbbtjm9NKRScD5HeJhureV3ayNvcHxBEX6UEl/fNJhbzYbl1z7/yQ2oNYDQkuMMkxO3STQQesBZnaOU0JvtFcsiJ8mTpdiScXJb8w9NsHndG3MwxjTKOGggZJcnquWEuQtvGe6U6ObvBtoF9+uKBXq0s53bgfcx7YNy+SRSkKaLThXO7BKWxRvfQZBnM9BRTfqya6Ly9KToEEQYGi/mSiOQ24rP0zzAh/WOSILlEuGx7srYXJHUa19wWP2q6IY6Oyu0RZQ6JbBYg6IGTAcGCjp0LJvPEItaeAEZsS+QGUjxg57/lU69Vkw9/6aZSbiJwjbhiV9xlTb6GKkpAHdoASomS8A6lKyajlK96j7fRGVlp04luxoDD5WtIMAu3UIGMj/ItV/tVLEEZtOyPQGgWdaO8cbkf/0jfSzdTox/uo02KQyHJwz1BVBoZqk3viokD7EnJisSljdtimcmN6toJjCA8aoBjSFISTSyAi9JO/xZ5s7A8ExcQMX0Gqm+S6j7nvNnzsjBw0QBspIkE40Bim0XLWZ1uCM7qu3c6p240pBA2wXkfj+AQ+t2abiKwk9N11+GMUmlQkUr/lqk+JFpcZdPkTKVddWzDChKLnGDCY6D1lnBFYrQ14bK0pH0fCe4R+9yjH1Z9lXbe3NgRCB/rkEQUJoYetQZaByPI8WYyH/fLc+qDcfvsiFPb8yTz0sRis2Xh/Ls/jR7ztJMsoMvAPtpk0ySSobY2XrLmeNUzrjXIcrpz9Nz45jTIWNJaTRAgX0QXFc67hvOgKYLgfZMYs3SFY8Q2o2vv3z1lgADAueufwf+9eddi35xWCLx86ufV3A/+AgA6I4mS48hs6zTnOc+52gRJEqr+MKTg3iR+AgjANGaIAeJCrB7nS6j8Jip6AgnOBtgWptV6NL7XWI83C3VNVaWhNwP3sa8ozIXXzlwpSRaehADB+nNHujJhNS5siFXfIiJj6iksewLu5w//NJZPvB61BaI4aWnpgiwH5hwRIw88sU3FeuZMsbcyOmOlv6KN4dKY0e1kDTZ4I9yDVRda0b5NPvCUTheuvF5rsk0ynCtDhkzcDBavfyTrCoFr7Nha5yVtxhsV6z2ieUif5JSQ8lnZqHOKwYLTYWWo08JbJQP0copMHBrE3oxlBvtTXaQHWBKxAqX1t24rsy1bUWvT1Kj0P7gkQhdYbTBgmrHJzM2QdbptDC0JlOKrt0A60yIdg3Y6A2aIqnW7Y/Igu9Zt2BqLSHT3CP5ydgRq0zZx0nNkgONF+wIW4idxJYlPKcc2iqe8JJ7LsCS01DilIGN0Npjz1gGUyZtjDrA8/mUx40x3O5JXqghDHYYJdty9Na0QuIL6Ndf0gG65SRWjS0xMWK2EdAjRY56zvnVv1Dc9BPCszWW8q+FQMWngYjCHSTrKdUo0UIETBKQ1mfB3zChKpa+lTjHbUn/sixAaLtfazrscHkSibngLOEByH+KiT9sE0tedoxV9qaOFolii2T4NKmHA8GsTH9bERlhiDXL3nR+xPoiVkzD5kOHVgHa46qDAa07K47/XIzOs8BAT+m3y110HxQuiUlVduekbEjx01i2TcBRYJFSifPTkXodSu1oKAgNTxRx1j+nD1qrpwxUCu2hrSMdfhtzypwaRDYHEAKYzgEWTrNvZFhsgzMShL8bUJOtykGKZIN2TOBU4BV4JzCl5XDxmtEOu/6EhZeOVWkxi1LSf+07EE18GQYkhMj6gBAGncZUy+KbbhSGdmlvPrgAEySlp0jdhzOq0qyWS6pcELMJc38IudZ9bz9LVrbF0+CexQGRnm6CEJjHZRQAkmCg2QTglMa9BN6LcZJeB9nqiWRwLl0f5njFdlRvA0e2ZSst9gd994kHpLbqvGLY94tYy7itLLn9WCNzN3dEdIoyB9oXSv9r/2hPlgJ/+042y60T01wgyKwS2Kq1WuDItVEpBT9Xth2wdyLNfTsRSqm8b9dDYzBLOwhGJhALSg/gL2nBelGgKVC/IdOgnGnS7Zp8JQnM+IyFE24xUdhJKELD4a6yumHrqW2irXSwE+0e8Xz+MxtwZWuQOBWokZSdfzr82omAPArNPSAMCO2JYeQUp6yLBfXYHaClxEjXzWEopqby8lr+jvLRLxrBml8nekcA9+kmXWqpanSs1g5Xq4PDUxWEy2BIIGhoQXmPBVTrVBVE+AoEuQaHhVl0AF6kjJFBmWV4JIBg/ykta1pSppEv0AvKoqVzk2NtKBQE4CkxZ+N3/mGeAeaTWgQ5NCsqyJSKMZhtxUGYZdsfZMK1soE0ooHwyhAxKREZ73/PsJIHnGueJqzvabAvl8hSdHx375ATRUYOaT6ONNcgbIS598GDkh9a2IXQlanMXiRDlEwRcD3N8XlyfPtfgK5DevXnlKXhNiSlYUwgDY7ZaNQryPW3NTBrLNlREOgQYD3vSGqRip/HshxqpWhR8+5YydynhTDo5klhJDKU/yZ6WawaXUYnkTmeDSKFMfbcy1IgEXMsuXqfiBCbfETSu+RWQ5dpbzldfA5fqufT7EhXkOxLINnI7x8Z6uvRKWdYIsVrYqwwor/S2VhCswWqG2Pxw9NtEUELYJAh/3bKwMKzlWya6jGU3tc18BgDv3djxI3YGTHD0r59PW4eKUwto5TvhoR0je91PAnM2jvwFK1rmuplXpxUVTTtum7wvgtNXynn2O3CvQBXJHWFNpHJHAhZps1qbC/ByTxpZNADkWKkMpJpzZZ+jC6MmRYI5HC+bN8eubGGU4+dshmX6u3FYOb+1AUivr5ZJ+XL0Wggt21JEqNsBK3na0yXm2j5YqGUw0U/XQ2xzlz2/Bu+/HhO4BDU+hdOyR6EECdBYX7muqtpIAB67CCS0Iy3YZ8i4TB88haCIg0rnT75RyuPivtJ4fG2LHGM7x5zTo6tKWSGwVJSQtyb7LYdFagM5XrTk9ggGBABoOj8glrHQDT1VSEFxc8rlPK9peFkwS1Ram3AIIPUjCe9ChAGVTuAIqQ/xdvGWlq9lCUzhbOVZzk62EIh7p6SeyIdwTuy7AwGrKdh/3ztZnnJjuTKjhCztg+FgwAww4M0GBlWNtUZdtmPsv/dqBPOudXcXyDyWQF+L9lLLCZdM62J2DbM6i8frBDbI/iVxpiPCHQi4myoVQUlXKHXeFvnjrHc5JuzjGqj/VhquEPhWyptHPInPYqAAOAU0OrPRY51Q38/X0L/orSrqiulB+1IQWmO6MOdF68QoQeQ648f6FFsiPPYVFkw/LFozjwu6+mxPtHT8lWhdPw5h0TCscMg4YhCXKxe459tJ5LUQV8BJObc6qsnokjbLY9oPv0CU40aeCl+WmCwr01qLGkWPlOetDstV2Y2u884/xvDoqwT/XygOBQIRUpWSxWlU2y6mRGySHJXfYvG6jpMa43AZJ/+gOodsx9TAD537edB2BUBNoTFYtJ7Cwfs8WXPifSW55PtorpsInJ6RW98xZ0qlsQpIA4bC8olfES76gXhId56BcXJxIsflKTg3nI8dNCSwEkRc88b9sW7jzpjcsgdEiYqyZG1A4Ngiw5DamV/QVOwECGy/5biuxGTR2GyAklwIcSuIt14XHFkzTMcsUgetMI1h0WBhec29tfiX4T9Al8M2VSV1KL3W2XR/rONvsovOP7Gv9RsooaswrgaoNQGDDo+EVn1g32kf7hOIpVeMLZ/q6xga0o7MAvUrhjDdK2eJHIVxrJcMdgQagkaAmP8+yMrbN5KCYZsy3VLIDQKjv++UxsCr9PTStPgmkZ4T+6CyQ7uNp6nUZJ8lQSsQO2gStIdBUw3waNEIDYyqi+S7HxT9nHmaODpabj2IEdTUAqRD1A2aBAZlIt0kQ6T5dasOug3QqbaIFhHBlfPAGIQNdt1xfte25B8liOsGDKn06BlpGmLEkpneB6/j4IDpzh+hnQSZ02ilTG01JqgMkWgFbWokietqjiFOncaWvQz7WZoj2hPePh8YORcDViTU8UWP+84EBICy/nz7Y5I5GwWDEf7jGHx1WiGwe0MWy/nGY18tyzELIQvnGasBYpBqUa9hMeZ+5dIBkIHcItEhiNENudrd/TwuHcMpfh4v0UP5vAfRGzg8YscjrLfZwi45zsnmo+y25UqjF0qy7xRho8u7HcB9iVsGNCRSwo7dizIJYpaCyEsJcfIQPmI/4dNlx7kem5YPiQl3G0YD5uxumim+osv2lsrVKYU4Gofs7YGmCDZra6KlDCxMKYfANVydSxePE/t9gZEIsAhfFlIwmIxAuaNi79ayOz8DLwMcOsZNr04rBB74QOoXgVl5p0hoAUeiKXUJkOeA5Kp6G5IDf7haEiuB49ikDOmRyBgnxntVsxgqW3BdMmZOTPmlse172K+Re0yjOd7WdVm8RKh33hK31pWRGSk5K+Dd4cS3C/JkyhKAYH+JBNtO2jCW2ow/ZvVfhwXmC2x4Mjz1SyJKL5BH1yTFo1l0SjToW1Pl0940HrmyDHchsA41Ure+nsUMj+aQajym9ZlBDwN3KKB92hWJ6mwHXQi4Kq2z/+XdLO0OzbrD7bSfwFES+BZNfIPAPHB6LfFyU0GJoiSgRByRujSK93I2hkzkBjbeBXlpJWfDUbU2nqdDIyZnkFD3fdz7dDoQ0tXP8GiS/ScXMEyGqLEGc8e8nsgrNdO/U5uISHOA83sn5ElmBWGirEzzySUyoDByk2lEpmBYDsqOOkd/Ht23f4jPmdX7faY26VZ8DxqSKIOK7Wktz30n4dbULEkccKINYj0Bk+YndZjoN59y7e4/BlLUrp7JL7VZhixh1yMulXz/pmaxjPtIpXUJVspKXwm+I4F5WNYU3VpDQbOGjzFZliQXlpGiZnmiPjNZoVvuihADyfy2Qarw5H0YgAmN6tJZBvwMW9oqc9GoE+GhmNr1JIbbh2xwxl6XYEujTYlLCUan2bsXJIBgkxgd05pzT5Nwo3NfEYkafu7oOqH6tB8VscBcY2g2YM+PuaO/jM77P4vW1Q+ZlOA7EsBqtGMp2ilPgwaAlDYZoeJuQEpMBg8KEc/00gvVFHtqtXfuK+o5Ax4kIiE1bGJazbHagalY+1/H3TqTnLjIMT/aosztjtog8GtNlCMq/ONe2LeOhm5IMMRTUlxw7FKJAQ1zqjDHueROMkNYU5FXkKCu4R2R4fNEsMgASW5GlrHMIwASQexYM2Q9TUoqRC3GBsRjfDyx91k2Gvl1dOH2qVwPpfrHUKM2bQM12rimBMJKx8lzQfV6dF+FLDwOl7RUnTrMgQxj99oCi91Y1N597+WoWMXYwsPUZDZMZOQ6KHAgbNkeWSydNKXbSFmmjSarSu0CnFVzE0x6CBflbtS1VvYoLfMBzYvvwdxEcQgjee0nJYQ4Sxwm8DCD8I7z3eNobmf3pJrdaFdNkcPUFZJmCStXQ5c8IjXFMCLSARdc9jUJlO+qhIv0JDFt3qihY6ActBMQSp8Fp2OgCG6PKfMeDJMbj8KpLjzz62aNXU/QDW+hFMoB+Y1tj0TsfBRD7AhSTKAe4OvHlSgtDROZSaSL8NukQozyQHhsi5LVZPy5BAyJOazgARu5LB/5Efta/3U02VDFpaBlbytVua9RB4gyWY44ABt5lUh1vtuHJIdY9vXdIW5bNkhr7XqKNm2lbu0SGZ6yZmBoFow7Ia+0DhES52OgB21SU0hs4S0qu9Rayr/rX2Dt53w3Wz1RxiL4GbD3Zm6tvCrjCrYafosPlJQewpZmU3nV2s1RrkXxOOWd5HTucpQASbDEdp7xtoAX7hQhfQb6i+eOZ5CYxpTIspwGw6Xp3fvZGnBrotSZHq1f47Kts3Sp3FxTEm3UqR1AO5zUaA3mYohKvs7w59qbP2JDk+MwM27IZNIx3KWpSZhsD01K6CSk7favGmqUQKrdmvt8NfikXXMHzg1WTqRjByrm5MqlMwyPzhMfzhBLFFkeRY2wQkEFnwVPlrxS+riW2x/Jlm97pI1dAukJVS3Tk6tyrEhwm/lL9o1LVxvOGgDQFlZBqpTWntL3m0AXZIwJP2YYIwCXicTvXgbBjBeHxESJsjo7vE7ueTQ6bCPcY1OxCdR5WVnoGBtFBPfbooLou8MjyiSwLWigifJTeRB3+a2lWLzIxt4ZpaFhpCcZdSqRtd7XkAqBMBpFLPm0aWrsZdni41dBTJdl5epAng9x53bOI8HzTPJTfooPDDEmsnDmL2k6Jqx31pbG9DG2bLlDi4kecTfd1WlFgifYMEWDYilXIozGvxgbokrErikBWzEWBJJm0Fg5U3bRuElpEpFMmXUZcw6IbEgGyMLpHrbsi/Yjz7NBy47sp9JzNtYM5l8TEOOX7KPs7zD3qLNO3199+IuYuno0Nmgp0y6ZJol73yWLHwQGNWM30nJ1/+5H2Xl2Qw6bEChSnw9vHI2l88eJv1piLRYESJXsw6K3xpB+vCOYhT5qBW2m+S6aamoDcfYOP2+kFQI3122ODuto5ll5bs+QwWkAlCy2RgTImfbTHlW7SlFyBy0uXKstjszgzx7iJaoYFukEsZJscntjTD7yORD2BNjTj+viNAw+VK1IsYy1pFKXrSAXeWUu9/6YYHeb9UxquJxFjZJDFIoshs5aSh5LnDNilk6fyjRi68DT9MEEPyAgOXkg9XHsDE69G5HeK71+shs6BRO64KfUN8JMtszWra2FidUVhjFQaha6BTTcsPfm1f43CEygWQcOXCBIzZV3Y8vVfvV+kmQ1jUkN9mgQhgS6zJKUHBd9Byp6oCswP7vD88yFSvWDy49+AXW3B1YAJRom/O4PCutRQWvolPyqVJF8Y+5a7eLgy35UZlgbaktrbIWT/RhXD7FxKntV1mDOtDqSpzHmjK8++z4WuiHDENefjJ6/bGypkYZZZjFb1gZDyV26UbG9SH+/hB3gZ+hvTSsE3vboF2o19l1cYJKgq4VDXVqIEmrt1ZY3VbvJyYm2gpLCteWvrs468dJOWvQufgjxMXaAzKc1dr5rPfQMzpBnY6m9WXnnQT65Ffa7Xhdiln7V8abDPkcGZVyL8kczCG1xYxZpv2uBo4fixD1DFnCzLm5iH+nHPs/S1H3cZVg5wljwmZ5lNkyrYOKmO+LSuKQ7xCVzllSIartMBUeJ9NGdvH3XP+bEPkJDzXYohwjVqc07P5JjhcA+aRN7NEeccvbDEgmAJdT9JtuRjEFeOVa1nWySfFOqtF8cnDsSXfbqqDIiH160f8YIaTKWbLE/c2/7QaSEMWbms8y1pwI1OdAg8quaQOL6u9Ujt/LuPYsXArowxr2LTDvW9vON4L1PYdxgKNoVpFWtS/aDWHbNU24mU5jHnGNWT2zItPmzyPFT37i/pHa7skgdfF5oGqP11nQTgZ3KW5I7O8U9aK/h0MlGrS0VjkySpoE10gE03Oatvu91k49RDU6+lcMXt1JKD5GvYlFPPPxsNA+8ED13wUvUaA+IiLWlMRJlU1thE9I9CFyej9g3Gbj07mtroxB0QWrsOBDr2J+ytXEPhHLca4JBWcTWYaqxuoyKdhF9/hMvBZLC+LfTjIXIWcx9/HF+69oSFjpTsbuf/uh+0jcReAPjOL8gNr/YiZ5uLxri7/764RFn0iBRNpZgm2jj9L6UIQ/9Hw6MITNM/RPsRQm352YjOhnIWN+wPaYe+1I0cX4YoZkzO+Rea3JlhdEjotUhSlHFqZPyXGPPZ7kslomCtSaZrWIbw/UHn4up3c/QpWA5I4m6HvVt99mwvMv2Rm5g0xjNISeLJS4hLAxWWC6xM6pW8kPgwiVrBYX36rG43IslVsyv2/5R6bWgm1p24EvfZsHBrphZGsRij4bQ8PJptht1Cpap8Jtg3biTQOY198a3V6AGnamSCvf6gt6tJojoHnuN9UBH2Q3A+WPLBo30kZO4/qY1uPg2QkqZz/J5wURWkafWbLl5J6HL90YvOC6QtfyNzzNaJGvyTjHEbFe2iDLVmsUgKqWOa5Qh2g8fjKkDz7FCkkl9/O1lMMmwa+4Ku8EivWxG2swPlZBXeP2TsFF64mB0uXKXE+vjcCNZb6nVJwWKcTm+ZVnNuDbPV2UIst+8kynY26SbCOzzqZ0H4/pwQ1zpOJ1AsfourRqMjRvsewWhY1WjtPLuijXquSCNVGOeFfBTon0G7PJys477kg9quRdyXHmfCXGWz9CfOescGFlT+78ctYe/FvNT+1GNRj6IiRvawVId7tiVpGbIK12lDB5SpVtL6WYK0YQ+5Zqj3iaRqMNDXzXXWPt6p7R4He3k0h2eyATL+rO3P8KXvL+F1+opphP9aAhDJizkBru9d0++Eb2TfMsC/7MbllufdRVCiUfYNMsu5YsLm5NN4i1TZuFvwWfBo2WIbzVcalSu9QosEUhxYRFh4Etw0zsI8rtN+giBtz5yKIaEm1ya70WHxdklQK7kLCBYHQkkF4ks4I89VYLo89HdBLhwbcmdgI/eQUWk16fNiooeez/22Au5vnCFRli2Vi7Iw3CYePobUe37PF4vlpySJ4dOaBd9bEZlKINKbFF9OlQgFYgUgYkqiGBZCTZ/kjnz3shGEPEj5Gv8jd2j+p7KMM3elZCBDXui9cy3GKt/If3oxj8DDnXx2Z5LH8a831C6qvQStUF5Mkypd0SwAk3ipuCh4HLErvk0geRsjM8beCz4S36kBHPOYlxdWR4Szfto7Hvu9tsofYTAOx55ODbs2RvXF3sxv4CvuE8/rPRmkYWjUjqpaVx5ebga5ALmvf8iEQMMKnTc5OzF6L//i9z8uyK6ApJBZBqKIE89vD82PfcSX0NjMgJnTB+sZl8I9H4VNAP78GAXT5GK2GiKFS/sXcFQYtRVfj/CcCPcTvyc6CBCmlUcXX4d2t+f3hgTj381pdfvJso6YkC2GhIwMP/BG0x3HmY+m+BzGQPA1RyWv/Y0xrJkWcEuZ0q8zGwXU4Suh+/5Il9cGxADtudR3KR3SB8h8NaDn6/teOwQc6iTcekanz3lS1zjWSOhLWQccXyCX5pQGiuAa09pcGjEUcQkC6PrzO4svfsy0Q8ncAww70pRqiRnnSaxqNtPIcm4M/UB54dA8AppTKlJvG7nx6k0nAjys9w1JxumxMHQlNXDt+tP6eyjCbqE3Lb2syP9M9/AEXMAmNgOOYEDD8RsLTIS6Bx/PSaXLuUnB4qGQLopoKjpNQNCm0dEBo5yTmnAIMtIZHWCQ+n5pW6cn1mK9bsPxDZsgjuljxDYF3cdfIrVeLvj8uwg5pbgUIu1Qn4FYquWyNnKJBAPRwDdqaqP3s/QVsJs+2x07bxSozeXIblLxCHX2OU2PUy5twYIxaCZYMv/qSdeZMzn6gKkA4tMadFv5SS61rITlkW6Plrfne6U1hRnSBfiydzZZspz2+PmnidiHczVIhzHUGHRnTWzE0D//Hux8N4r0cCOmEIL2HdbnnDZT94fy6+GsBDaEixtrDVlng7zBZdmFmN20I7thz4XGwgyuFO6LYEPfOXPapsfeSLmWJl3aRanOe7inNHJqpTi8st+Qhp7f8RxNm7tCWJA4AHU6SGJORxi8r3DutwORlfNPR/tXPFEVVirNRdpI0XNJ74ey+sfQbr4JADqfUI3KNJS+mYgIB67hppdayrGDpILYbt+E0kC0q4hxG7ueYpVht/Fu/Y8fLSRZ3YPwIQRVbGX9cLb/8Sem2/FRG5TAXHRLmq8FaKsFQjeyzzUUBhkJFTmTzniD+Vq7M0w7j13nS6FAL/th9AsO+/8ifjbEtgydz3+OZZf7I5zc924voyUafRkpAJZEukCZEoK55mG1/0kEetY2K2UREl+jlX5uHYyOnzWrXvydcJsnXFy5gfVhGFV2/5YTD7/p1F/4g+jD5HrOGZajNmVYCNAVNlusKa6XWvSai5b+jqFQB1cZzjNtkMx9dz3+dTP11mtgJWqFT16XjEj5tb+gw9fjil2AvA7wSLf7kEmKNYyMKQuXyskq4ksZgvJE6/g1m5nGWa/MNuNK91GbHn0mdjqNOVd0h0J/NCTz8fmg8/EFfZCOD9DP9MVyfQrEBrTeoW490fSmyHRvZcSyGR4G6PBFRGqW4cYFV8YmX/7H5hyextpmSd8VePHPpfpsB2H8jNz7Se+E731+zCvQGrymYbZSJLvk9ns5ySSHjX91vVd7MLz3PeY+PgKszR8AZV6lU5R7m48i8ROLx9+JSaZW57k4xr2japzw2ZETpFzZd2+fa3JRvh+NiYJLHHzCuEygvXqAtI7B+PgQTvw/Iux49Hn7kqCOxJ428Ev1vY8/yW+RLYjzl2bj2sLGFwQRC6yoSqSglWrLwCttRkr76EJ/OdYUynyqEq2SX6RpHfm7Zg9TPQFH2OuEZEhEVAjKSVNXIXTn/9uNJ7+TixveYwxKktXhQMLpG+/vUYrWljsz9OjharvM7at73k6pvl28eSTL+Fk2Y5kWqfN5YyVHb3jrxFiS2A8m4A6mSAvKbUy2RgbiZ803O4HN8rsiCksEzxrC1i/Wzot0veegRaXmVzY8eQLsecJuo17pLuOJfY+87k49eahuIbz/Pzl67FukuiIKaxWGlo4baSm7bDupx0joIy+dLdZ1ZpJAynjouViGthmvevSh2/Gop95fw6SbWNqDu2h2edutTV2V5944bsQgQmSd3/IQjHGoFjTLZhEi3OtSZQaN9bHTdvCBz797Nejxef1ahDXLyZpXySaCRTw+039t/8uWuffJcTWReYEBkJIiSs5xmjQGtfgsh1rTb5qt1XW/ZZcWQ4MiEsiLl9fiAtYzs2ND8e+51+KrYfuLr2WcEcJ9uHeA8/XHnnqWfbT2BqXUdOXr81Gp+cIFVBoAP9J4yZ5fn9piIHVQaPNQcBFv1CCYeS2gq7YM+TW3WcniLLs83HGxbdeYdvca6hxpb1YywO256m27aVP/mZMffH7bDjKxHt9HR8RweOttN+U7gxnumP5kmjryT+I6S//y2gd/AP2DiGqROKlQwX5xGLu8En32Tf/LmonfxHTncv0uKrlSZhABkUTFVlLjKSWuw/ijkFVCykvFpJ4plyPs2w0fv4SXQPmxT66z91PPDfOctejnd5d07/9n//Nv5k5fzauXGB3cb4DNMXmZesmQD7E0b+TapG/ZQ9j+AWqpz9ZNc75jR+vjxpc8pRrOVRkyGkiyGcFOYBGIzOWie87DNjyX8lt5neWiPZAZSV/mpeF1n6Ru8WMiuuDFvjEnDvJGapr/cXgwheV1xpj+I8lDAZazTHtjoMx8bk/xFr+XrTYM8uvmqni7c+to8FarMG5t2P5jb+O4YevRJtZML9CnkO1fKdQJKsih0fbUZpbuhxur9wpiLBs37jlh/aRNd2lfoyLeTZ1PX5hFvWMGbf50Xjmj/48HvnKH5biefdu6a4q2oxbHn+x9u5//Q/VuTMX4jJfwZy6MB/T5Nq+CRUpjIKdwxR5xT46weOc+m33qgTsCXS5RT5u5BevMZNM9mN+XLIkep8sq6Ag5tgy952/waq+HOue/TazTE+z/taZHKMrmGyfMnRmMiaIylxme0K3QDKw3SUzber1LUwwoU3CLUPYYDy9fu8BvFNfi+b+F7CU8VDJOAmoahltwRfKemffjYW3/h7i6sy4SjMNhre9wDjWFBKcO0lYVTPJ9oy7skRGooQ/KylviKnMa73GY0vinDqlO+ogR2evDYmOaQAAEatJREFUzMfZGbaPqG+OQ89/LZ7+/n+3upCV0m53ck8Cm+np7//r2t/+r/9TdfTy+bhAhP56KpyY3BTrp7BoGeaMg8RzMG6GbPQNHvaWSdVzO8hud6/kKH9Fl9JXo+4OTgV3a516HrLu/TxbKrCVEy8UNyWfvGHarEXoSmfDRj6s9fPo8MkbpyLbzO44ZZgaxU1Cdz0WbXYLavPBjOa2gwTf8/m9hK9Ijru4sp06M12/iGWXtZx5J1co9vmgV3YRY8KuBvS25yvkW/XUFplkN39jvMASij+PHTj64c7LfLbnwuU5PFe12HLw0XjsJQy/+0hrIrDlPfblb8blUydjhg9WaclNTC7Fvp0bYpLtcuV0qQfDFYA1FPKeoI/TDVVV3vLv6ufj925/dFzZdkEYft/e0Z+hgvsx1SEo/eHn2exE3zAyyoe4xE+T3W0aTzAZv217tE7zTYNjLOS+eIK1QcsszN4aE488RcQIoTYE91VOReLc0Jli3tyszmnLGcbi79PvH/4BEZnv81nbRRYlsrsO/a0G11ohT1IqlZ6IJv9k8uJm4lqowq+L08X01xf7cfbSfFydB5vYBI9+9evx6Et/utaqs5Y1E/jgS39ce/0//UX15uy1mDn7Xpy+tBhtiLt727po536QGF9AVxrAUeBVdSuJJ2KQlG95nu+vvHDXE3PKSKovhyrdD38WS+x2M8lKiYmDL+GjPgAB2BcSRlBtVvSjDVb1b3B6b8/j0T13kv2pgJn1QxOEudY27MrNul13VHrDUrabwfUZNSxB2P6RH0fr2vH0L2tpD9BWSRSpsOZEuxMP2WpyjY+eWs4IJ4kvqctYgv73+lIvztDvXrrGhD4etP1f+hq/P1hzreMXS+njqzUcf/C//dvqyA//Or+IthvteGDPxtixmb6PydOc7dACppxxwWn2c53Ngqj2S+VctbqqsfeqmwJ9W0TLG9aV1xv3RnXgRSYicCcaH8VmZ9bibJAvaum6BLRsws2IEmu95l5fSHzFUMv9NB2eOZ6tmKpc4hvJS0d+xjLSN2Ji/iyqvax+sF7VZ/aNtqEYIPeCOmFMdhgR0KFUSdwdIcmyM4kPbIAZpgBPXJiLMxc7cb0/FVs+92J8+b/5H+LAl/9k9OKoiDUc1izB47Ke/Nq3Y56++Mzri3GZCIZm/TpqrYptELmFjtYnnLaXiLWfSmIIl9cceFfCrLQub45Lv8sxmcFckk8DqMwoVbN8xPLwP7C/J8tDDr4YEw/zHUG/PEYYa3rdqFOrfjjpSn+OXOeEvmqWYVn2eQTg+6WZrp+O/eAXLJD7gJWGeKcg6MDtD6l79Ri3wH8XWFc9sskKsC2+OXFH2GwP9ciMumIXCGA/fWUhzl1eirneJKs9HosnvvnHH4u41nffBN797Eu1D374V9XC1ctx7eibzEleB9BrwLo5tm3B+a+rDqtaoygTRE74x5flJn8/2uSS4c5/03cNYSgd67nEXBkwM4Wl2z/xs1jG0dElUnPyMSR6LyE1fP3UHd5rdKzmVeYFw28cQzoC5OaiunouuqfoownhHbKNcGuBzVb8rq/WOdayBCj7eIzgTSa2lFGD7gxueSLtbnqnXGmYymy2xV2FHC7O42M4jkPp/CWI28FdSrDDoW98L57/0//x5iJuKu/uF/dNYIs7+K1/UfvlX/676lfzWHdnj+CpYDVgY5bwpGZs30BcM0hwDa7K2JSfY8sz/3jv48Cr5BYFn9KEWOg2dfLfdZAtN9pm94De0QU+24pU7z0WE488S1zXw3x4mk1BmeZTs6hi61jhQ1Yc9E6/F93jfMXz/GEiSSAs+2c4RVlHTfJaWuY5Jqd8GUqohcI2rLUFBepVOovsackndsSQkzjsooeP4dzVxThxmW8hQVx34j3wwktxCI35SdJa4bxtHT/+i/+leu+f/prv1p+Iqfpi7Ng4EfuxrLdvUpKhOVIiMfxMu71nogdOtbkSp/TB4z7ptlWsullQm0hW9VNKliOq6Q+zS/R+PqvFIvPH1bb90d7Fb+/jMbHzAGp7mhUl11gX9SGf1zkcwWfhqtmr+QHOJh/D1F3pEm9Vswu9XY2g2nSWKOFV3mCA+0m6HRPSZJiSszhyyvhdp8sis3XnL12N01fn4xzEHWpUMZHwwr/4b2PfF777iWj0sSR43MBnvvHHrNZfiKMv/y3rm8+grolFwusz7G2K7Zs3xlRbE+c23J4gF0kYl3WvY3k7TaY0nNI3DML1JunPVpKN9FCp+t2FWodv/J5jYuAi0Zon3o4hLs062+t3565Hh8/G15lrbuN+bNMPU0ROD1rW2IJwUl/e0SJnREorDCRQ1Y8l8HYQ2zAhvTnZITiqMFlG0UOwP1poDhfk2YszcfHKDAvI+EhJe2vseOr5eOb7f/qJiWt9n4jAWx97unb1/V8B+SCOvPqDmEft1dhNtcMnaedYzrhn+4bYxORE234Lv7JtzI9CKnHgopA+qZ3NzjvqRlKR1zzNP6nwzUPGRBDj1pR9XldLFNLz3GEGUmFE5CTj2dx99TKRmlePI4XCwK5USjleshovMX8ETObmmczBz35X2FTLMmhxbAhU0TwaTePkqWX6M0lMyyrwosbSCtegG40eyCwjdXA/Xmau/Qx97pXrfKa2y8fECCrc+eQX45k/+fM4+NU/W1VLFv2x/nwiAlvj1sc/X7vywa+qJSTo8M9+HHNIcp/dVBcwFBZxRjy8A5U9PcG2DBLCpuOlkTIQ3V8ZO3PNs0SUR343p4I23zElASCiJSZiuS3DpJCIwHEJ3EzHBQyYwyqsGslYCEQGT/BHl4w33KWSybI9CGrxSY9gUuJHdeQ7PBeubJuE5p/EHcNoIJ+smJuayj7AvUBs34Vri1jLS3FlgfXSTG/W6dO2P/F0PPnP/lU8+Y0HQ1wh+8QEtpBtBOqdf/91mL2Kc6/8VzY8W4a4EWeuDmPZKb9ttdi7cTLW43geuxQd6Mj0K+QYSYDliaaVY0rsmOQ8yTz5mD+8V17lnAcjGmSpUnxVykeje/lkpT5ZjnL1eyflJZH3qDMBtO7id/Y97QaHWRIXUmffrFbRB686z114zCEjyB48K9sv5Wg7ZohUPXtlMS5C4HnGu320xwDbYBvEffb7fx5Pfvuf3wz4qjZ8nNMHQmAr3v34F2uXj75efdBajqOv/DDmrs2ghgbpiemyT9QCUYC7t06ispkCBF8SOvEncldBXmgEUkWaTIBq85hoJo+SaCp5fHt0xqFI5o2nnq0pZUaJOC7E+kyWL3zjegoR3agln6BqnSpUlSvrZakKvnnmpJVot6gY4D41tmsZXFyZXYyzl5l2nTVa1cAELHM+6bP/8y/FU9/9l1jMD05yhd70wAhsYdsPfbE2e+pXVZtllUd++tOYPYmjn6m+WaJBFvlMzVWm8fZsI453A4RGJam6JLJpdCjniWfRWlCb+OeFQnKlp6QbeQo5xvfv/2iFSRLqsKxSXv7NesclFukuKlqiYpLBiNkGVIslZPwYIGp9M95iKW4Ln3JF2BOT9cynLyxirRMeYlhQi8V++1/4VjzxnT+Lh77wjVLpuKoHdPyNFCpsR//u/64++PHfxvnDv+T7gDpCWOVOXNVGJHjnRnzYDKW2rpuMNiw2IuPoyLUSIuK8k8fS1+YYFaYYp8IANsH3xnc9ji9usMDqpx89lzQFCklYcpMXOMrdcU1FcnMXvzTrylP7DRWxnjGhcwrTIdfccj+uXu+hxZbpa5dimY44+2LGvZv3PR6PffX7cfClP4qtB58eA/xR0D7hnd9YwcJ14Vc/qo5A5BOv/TSWLp9OZ0SDlQN1QiDXMXG/c9NE7NzQio3rGTcTG636Varty7L/StEoRCr9opIu4ikcyMuTUX95U0u8KE+F414pyUeWG/37KO+IwHqdVpdnn5yfPeA13bROcKiONRpdPXm9W4uLLP0xvOaaS4AIWHSQhReSXWi3EEv1QjzxtT+Jp+5jXvdebbjT85vQcqeXPsn9qyfeqY69/I9x/Kf/gMp+n6gcdnSFJl2QMd3oxrbJYWzbtCG2blofG6baMUn8qpJapHXU50pokOxgKLf/T4lB0oC+zNRw/AQtKXmpw2ryDycmD1SS5B3d8qIMiXyzMJfMh3c2w5muzS2nP+DSXD8YBbHshaFWOkuIMduyPQ58CZX89T+LfS988xNAnNCt6c9vpRIh+eAf/wuE/kGcfveNWJy7DEEIsHOTYVyMRAAlcbesn0RtT8SmafZ3po9uERakN0zvVCrBHJeOQfbOOI2xL/LLvfsieGYy47icoool9+qfNUpWx8X2v25Etsy01TyeqNm5TszMLcb1OYaHiGqHnUwNc82PmrBB2bb9T6COvweBvxlbDjx7A/QC7m/s72+tIltw+b13qw9e+0kce+MncfW02yjxtU+Ulx9X9Ig9GuuJr9kCkTfTP2+C4OuQ6hbBdRlfZQ+n2ILk3NRFFcqlSM9fqvRCktJ3rxVvJX8hbyGu+S2pOGbwcGkpy2DU4ZdNOgzmZztVXGYcewXizhENt4wqdvVjBeGNDasxNblp+/bY9+zzceDF78X++5ysXyv0d3vvt0rgMSAnfvb31ak3X48z7/w8ZtgorL9cNgF1wZlhrxP00ZNI8LrJdmygr14/PRXThOyu48PGbftqieqYc0RcJVwFruosxNY5MT4b13rn41jqyUySwOQ1v0O0tK7RI1i+Hba2WFzuIrG9mGVCfpah3zz3sKVyPGwIYhnXrov1uEYfOvR0PPK5F+Khp5+Pjft/e1K7uqW/EwKPATjOtOP5t1+JU4ffjitEbvb4OFcLS7RsGua2C5xDxXab7x+yO+1G+uv1k3wub4Jd8fBzT7b4DB2fm9PQ8actnL0i5zdIXUjGjZKSKW5pNoQs659wXVKnHwph8/To8meZ70ktQcEliLrIEGeRKLj5PnHY9Bx9Ol4ZwWm/dGswmzbFQoFdBKTve+7F2PvUc7HtsS/cUtm49b+d4++0cpu4ePrd6uLxD+KDt9+K0xB67sLpqNjPMjc0dWiFo1/bVK+xItuEqBMQdQK1PYE0T0Po6TbSzXjLa6cqG7znfLRj1NyxPVt5o6mpZiGiu9wr/T3clY5XXXPb6aFqmbrrdAmVwT/sIvguRO6ikkev57g3Z5mYL15CFful76ltu1hGwtDn2S/EPiYLth763RJ2zD43Wj2+8zs8Hnn576pLHx6Oi8cOx5UT77MBPDuvsw2g+1tCN1Sz8llEMUeuEMmvmklUJbkJYSVuk1CcFgvD/WxtIbAER7Xznn23hJXIbp49ZEqwh0HU5TsTbujZw3/eR3IHnCdBVdXyAWxm/X4XIeO+2YnPDVQ37DmQSzi3P/5s7Nj/eOw9+LtRxXci26eKwGMgzx/+cXXx2Htx9si7EJqtES5fYoOT6zFJX50bFjHsSCsZ6FXG+oE9eq9Yz04yMJ5GijWUbGQZy3pWiDuW4uzQpaREz6e8k8wgC3k7e3dUtuWhIXAtNrc/FFseejR2IbG7Dz4ZD7/4zyz4U5k+tYCJrWsn36iunT0TV06fjtnTp1hdcCbmLl+I69fZmcdP0WtcSVydDKhxvYM1JFrJ1J2I8I3IO8I9FCtk5FqxzBeQbjRE7hgAAXMRmoMzojpyySw7uE4TEbJp247YQBjutj0PYzA9EZv37GeJ7adDDY9ad9vDp5rAt0J86c2fVjMXz8XMlUuxMHM1Zq9cjNmrF/mY2Azu0DmsHgIOWGvs3swejaZUHUtHSW1Sck2qa9V3Q65wIRuRlu71XJucjvaGLezruYO9p/hgNNtKbaB/3bJjN5bxjth24DfnVkzAHvCf3ysC39r2C0dfq+avX4uOv2uEvM6wT9XcXCwtsLUCXy7rE+je94uqOYyiqUnpQuA6wYFa55MTfCWcVYVtPu2+bjMf1dhMYDzB8es2bo09z3zl9xo/4uv3vgG3Et3ri++/xZdyieZQmlHXY6ld3dw6EtxAalsOs/iI5LYDz/z/Ehe3w89n9z7DwGcY+AwDn2HgMwx8hoHfPAb+P7VRw1plp/AuAAAAAElFTkSuQmCC;" vertex="1" parent="1">
          <mxGeometry x="499" y="226.57" width="57" height="58.43" as="geometry"/>
        </mxCell>
        <mxCell id="blO8C7QBAwljQtFiSTqT-3" value="" style="shape=flexArrow;endArrow=classic;html=1;exitX=0.5;exitY=1;exitDx=0;exitDy=0;entryX=0.344;entryY=0.006;entryDx=0;entryDy=0;entryPerimeter=0;strokeColor=#FF9933;fillColor=#FF9933;" edge="1" parent="1" source="blO8C7QBAwljQtFiSTqT-2" target="L-7kEPcAw9VgbycKQxOz-10">
          <mxGeometry width="50" height="50" relative="1" as="geometry">
            <mxPoint x="517" y="298" as="sourcePoint"/>
            <mxPoint x="517" y="323" as="targetPoint"/>
          </mxGeometry>
        </mxCell>
        <mxCell id="blO8C7QBAwljQtFiSTqT-4" value="" style="shape=flexArrow;endArrow=classic;html=1;exitX=0.5;exitY=0;exitDx=0;exitDy=0;entryX=0.629;entryY=0.998;entryDx=0;entryDy=0;entryPerimeter=0;strokeColor=#FF9933;fillColor=#FF9933;" edge="1" parent="1" source="L-7kEPcAw9VgbycKQxOz-41" target="L-7kEPcAw9VgbycKQxOz-44">
          <mxGeometry width="50" height="50" relative="1" as="geometry">
            <mxPoint x="765.5" y="223" as="sourcePoint"/>
            <mxPoint x="765" y="167" as="targetPoint"/>
          </mxGeometry>
        </mxCell>
        <mxCell id="blO8C7QBAwljQtFiSTqT-5" value="" style="shape=flexArrow;endArrow=classic;html=1;exitX=0.203;exitY=0.983;exitDx=0;exitDy=0;entryX=0.25;entryY=0;entryDx=0;entryDy=0;exitPerimeter=0;strokeColor=#FF9933;fillColor=#FF9933;" edge="1" parent="1" source="L-7kEPcAw9VgbycKQxOz-44" target="L-7kEPcAw9VgbycKQxOz-41">
          <mxGeometry width="50" height="50" relative="1" as="geometry">
            <mxPoint x="734" y="167" as="sourcePoint"/>
            <mxPoint x="734.4559999999999" y="223.92399999999998" as="targetPoint"/>
          </mxGeometry>
        </mxCell>
        <mxCell id="blO8C7QBAwljQtFiSTqT-6" value="Input data (request)" style="text;html=1;strokeColor=none;fillColor=none;align=center;verticalAlign=middle;whiteSpace=wrap;rounded=0;" vertex="1" parent="1">
          <mxGeometry x="424" y="136" width="93.5" height="20" as="geometry"/>
        </mxCell>
        <mxCell id="blO8C7QBAwljQtFiSTqT-7" value="Inference&amp;nbsp;&lt;br&gt;(response)" style="text;html=1;strokeColor=none;fillColor=none;align=center;verticalAlign=middle;whiteSpace=wrap;rounded=0;" vertex="1" parent="1">
          <mxGeometry x="567" y="136" width="93.5" height="20" as="geometry"/>
        </mxCell>
        <mxCell id="blO8C7QBAwljQtFiSTqT-8" value="Kinesis Data Firehose" style="outlineConnect=0;fontColor=#232F3E;gradientColor=#945DF2;gradientDirection=north;fillColor=#5A30B5;strokeColor=#ffffff;dashed=0;verticalLabelPosition=bottom;verticalAlign=top;align=center;html=1;fontSize=12;fontStyle=0;aspect=fixed;shape=mxgraph.aws4.resourceIcon;resIcon=mxgraph.aws4.kinesis_data_firehose;" vertex="1" parent="1">
          <mxGeometry x="190" y="437.5" width="78" height="78" as="geometry"/>
        </mxCell>
        <mxCell id="blO8C7QBAwljQtFiSTqT-9" value="" style="shape=image;html=1;verticalAlign=top;verticalLabelPosition=bottom;labelBackgroundColor=#ffffff;imageAspect=0;aspect=fixed;image=https://cdn3.iconfinder.com/data/icons/geosm-e-commerce/48/file-128.png" vertex="1" parent="1">
          <mxGeometry x="78" y="425.5" width="48" height="48" as="geometry"/>
        </mxCell>
        <mxCell id="blO8C7QBAwljQtFiSTqT-10" value="" style="shape=image;html=1;verticalAlign=top;verticalLabelPosition=bottom;labelBackgroundColor=#ffffff;imageAspect=0;aspect=fixed;image=https://cdn3.iconfinder.com/data/icons/geosm-e-commerce/48/file-128.png" vertex="1" parent="1">
          <mxGeometry x="90" y="440.5" width="48" height="48" as="geometry"/>
        </mxCell>
        <mxCell id="blO8C7QBAwljQtFiSTqT-11" value="" style="shape=image;html=1;verticalAlign=top;verticalLabelPosition=bottom;labelBackgroundColor=#ffffff;imageAspect=0;aspect=fixed;image=https://cdn3.iconfinder.com/data/icons/geosm-e-commerce/48/file-128.png" vertex="1" parent="1">
          <mxGeometry x="102" y="459.5" width="48" height="48" as="geometry"/>
        </mxCell>
        <mxCell id="blO8C7QBAwljQtFiSTqT-12" value="" style="shape=image;html=1;verticalAlign=top;verticalLabelPosition=bottom;labelBackgroundColor=#ffffff;imageAspect=0;aspect=fixed;image=https://cdn3.iconfinder.com/data/icons/geosm-e-commerce/48/file-128.png" vertex="1" parent="1">
          <mxGeometry x="54" y="465.5" width="48" height="48" as="geometry"/>
        </mxCell>
        <mxCell id="blO8C7QBAwljQtFiSTqT-13" value="" style="shape=image;html=1;verticalAlign=top;verticalLabelPosition=bottom;labelBackgroundColor=#ffffff;imageAspect=0;aspect=fixed;image=https://cdn3.iconfinder.com/data/icons/geosm-e-commerce/48/file-128.png" vertex="1" parent="1">
          <mxGeometry x="66" y="480.5" width="48" height="48" as="geometry"/>
        </mxCell>
        <mxCell id="blO8C7QBAwljQtFiSTqT-14" value="" style="shape=image;html=1;verticalAlign=top;verticalLabelPosition=bottom;labelBackgroundColor=#ffffff;imageAspect=0;aspect=fixed;image=https://cdn3.iconfinder.com/data/icons/geosm-e-commerce/48/file-128.png" vertex="1" parent="1">
          <mxGeometry x="78" y="499.5" width="48" height="48" as="geometry"/>
        </mxCell>
        <mxCell id="blO8C7QBAwljQtFiSTqT-15" value="" style="shape=image;html=1;verticalAlign=top;verticalLabelPosition=bottom;labelBackgroundColor=#ffffff;imageAspect=0;aspect=fixed;image=https://cdn3.iconfinder.com/data/icons/geosm-e-commerce/48/file-128.png" vertex="1" parent="1">
          <mxGeometry x="24" y="394.5" width="48" height="48" as="geometry"/>
        </mxCell>
        <mxCell id="blO8C7QBAwljQtFiSTqT-16" value="" style="shape=image;html=1;verticalAlign=top;verticalLabelPosition=bottom;labelBackgroundColor=#ffffff;imageAspect=0;aspect=fixed;image=https://cdn3.iconfinder.com/data/icons/geosm-e-commerce/48/file-128.png" vertex="1" parent="1">
          <mxGeometry x="36" y="409.5" width="48" height="48" as="geometry"/>
        </mxCell>
        <mxCell id="blO8C7QBAwljQtFiSTqT-17" value="" style="shape=image;html=1;verticalAlign=top;verticalLabelPosition=bottom;labelBackgroundColor=#ffffff;imageAspect=0;aspect=fixed;image=https://cdn3.iconfinder.com/data/icons/geosm-e-commerce/48/file-128.png" vertex="1" parent="1">
          <mxGeometry x="48" y="428.5" width="48" height="48" as="geometry"/>
        </mxCell>
        <mxCell id="blO8C7QBAwljQtFiSTqT-18" value="" style="shape=image;html=1;verticalAlign=top;verticalLabelPosition=bottom;labelBackgroundColor=#ffffff;imageAspect=0;aspect=fixed;image=https://cdn3.iconfinder.com/data/icons/geosm-e-commerce/48/file-128.png" vertex="1" parent="1">
          <mxGeometry y="452.5" width="48" height="48" as="geometry"/>
        </mxCell>
        <mxCell id="blO8C7QBAwljQtFiSTqT-19" value="" style="shape=image;html=1;verticalAlign=top;verticalLabelPosition=bottom;labelBackgroundColor=#ffffff;imageAspect=0;aspect=fixed;image=https://cdn3.iconfinder.com/data/icons/geosm-e-commerce/48/file-128.png" vertex="1" parent="1">
          <mxGeometry x="12" y="467.5" width="48" height="48" as="geometry"/>
        </mxCell>
        <mxCell id="blO8C7QBAwljQtFiSTqT-20" value="" style="shape=image;html=1;verticalAlign=top;verticalLabelPosition=bottom;labelBackgroundColor=#ffffff;imageAspect=0;aspect=fixed;image=https://cdn3.iconfinder.com/data/icons/geosm-e-commerce/48/file-128.png" vertex="1" parent="1">
          <mxGeometry x="24" y="486.5" width="48" height="48" as="geometry"/>
        </mxCell>
        <mxCell id="blO8C7QBAwljQtFiSTqT-21" value="Producer Data" style="text;html=1;strokeColor=none;fillColor=none;align=center;verticalAlign=middle;whiteSpace=wrap;rounded=0;" vertex="1" parent="1">
          <mxGeometry x="48" y="557" width="40" height="20" as="geometry"/>
        </mxCell>
        <mxCell id="blO8C7QBAwljQtFiSTqT-22" value="" style="shape=image;html=1;verticalAlign=top;verticalLabelPosition=bottom;labelBackgroundColor=#ffffff;imageAspect=0;aspect=fixed;image=https://cdn4.iconfinder.com/data/icons/developer-set-3/128/sc2-128.png" vertex="1" parent="1">
          <mxGeometry x="78" y="413.5" width="147" height="147" as="geometry"/>
        </mxCell>
      </root>
    </mxGraphModel>
  </diagram>
</mxfile>
